<svg width="425" height="124" viewBox="0 0 425 124" fill="none" xmlns="http://www.w3.org/2000/svg">
<mask id="path-1-outside-1_828_51" maskUnits="userSpaceOnUse" x="-0.363281" y="0.90918" width="425" height="123" fill="black">
<rect fill="white" x="-0.363281" y="0.90918" width="425" height="123"/>
<path d="M62.8185 45.091L45.0913 46.1819C44.7882 44.6668 44.1367 43.3031 43.1367 42.091C42.1367 40.8486 40.8185 39.8637 39.1822 39.1365C37.5761 38.3789 35.6519 38.0001 33.4094 38.0001C30.4094 38.0001 27.8791 38.6365 25.8185 39.9092C23.7579 41.1516 22.7276 42.8183 22.7276 44.9092C22.7276 46.5758 23.3943 47.9849 24.7276 49.1365C26.061 50.288 28.3488 51.2122 31.5913 51.9092L44.2276 54.4546C51.0155 55.8486 56.0761 58.091 59.4094 61.1819C62.7428 64.2728 64.4095 68.3334 64.4095 73.3637C64.4095 77.9395 63.061 81.9546 60.364 85.4092C57.6973 88.8637 54.0307 91.5607 49.364 93.5001C44.7276 95.4092 39.3791 96.3637 33.3185 96.3637C24.0761 96.3637 16.7125 94.4395 11.2276 90.591C5.77308 86.7122 2.57611 81.4395 1.63672 74.7728L20.6822 73.7728C21.2579 76.591 22.6519 78.7425 24.864 80.2274C27.0761 81.6819 29.9094 82.4092 33.364 82.4092C36.7579 82.4092 39.4852 81.7577 41.5458 80.4546C43.6367 79.1213 44.6973 77.4092 44.7276 75.3183C44.6973 73.5607 43.9549 72.1213 42.5004 71.0001C41.0458 69.8486 38.8034 68.9698 35.7731 68.3637L23.6822 65.9546C16.864 64.591 11.7882 62.2274 8.4549 58.8637C5.15187 55.5001 3.50035 51.2122 3.50035 46.0001C3.50035 41.5152 4.71248 37.6516 7.13672 34.4092C9.59126 31.1668 13.0307 28.6668 17.4549 26.9092C21.9094 25.1516 27.1216 24.2728 33.0913 24.2728C41.9094 24.2728 48.8488 26.1365 53.9094 29.8637C59.0004 33.591 61.9701 38.6668 62.8185 45.091Z"/>
<path d="M113.739 25.1819V39.7274H71.6935V25.1819H113.739ZM81.239 8.45464H100.603V73.5455C100.603 75.3334 100.875 76.7274 101.421 77.7274C101.966 78.6971 102.724 79.3789 103.694 79.7728C104.694 80.1668 105.845 80.3637 107.148 80.3637C108.057 80.3637 108.966 80.288 109.875 80.1365C110.784 79.9546 111.481 79.8183 111.966 79.7274L115.012 94.1365C114.042 94.4395 112.678 94.788 110.921 95.1819C109.163 95.6062 107.027 95.8637 104.512 95.9546C99.8451 96.1365 95.7541 95.5152 92.239 94.091C88.7541 92.6668 86.042 90.4546 84.1026 87.4546C82.1632 84.4546 81.2087 80.6668 81.239 76.091V8.45464Z"/>
<path d="M146.262 96.3183C141.807 96.3183 137.837 95.5455 134.353 94.0001C130.868 92.4243 128.11 90.1062 126.08 87.0455C124.08 83.9546 123.08 80.1062 123.08 75.5001C123.08 71.6213 123.792 68.3637 125.216 65.7274C126.641 63.091 128.58 60.9698 131.034 59.3637C133.489 57.7577 136.277 56.5455 139.398 55.7274C142.55 54.9092 145.853 54.3334 149.307 54.0001C153.368 53.5758 156.641 53.1819 159.125 52.8183C161.61 52.4243 163.413 51.8486 164.534 51.091C165.656 50.3334 166.216 49.2122 166.216 47.7274V47.4546C166.216 44.5758 165.307 42.3486 163.489 40.7728C161.701 39.1971 159.156 38.4092 155.853 38.4092C152.368 38.4092 149.595 39.1819 147.534 40.7274C145.474 42.2425 144.11 44.1516 143.444 46.4546L125.534 45.0001C126.444 40.7577 128.231 37.091 130.898 34.0001C133.565 30.8789 137.004 28.4849 141.216 26.8183C145.459 25.1213 150.368 24.2728 155.944 24.2728C159.822 24.2728 163.534 24.7274 167.08 25.6365C170.656 26.5455 173.822 27.9546 176.58 29.8637C179.368 31.7728 181.565 34.2274 183.171 37.2274C184.777 40.1971 185.58 43.7577 185.58 47.9092V95.0001H167.216V85.3183H166.671C165.55 87.5001 164.05 89.4243 162.171 91.091C160.292 92.7274 158.034 94.0152 155.398 94.9546C152.762 95.8637 149.716 96.3183 146.262 96.3183ZM151.807 82.9546C154.656 82.9546 157.171 82.394 159.353 81.2728C161.534 80.1213 163.247 78.5759 164.489 76.6365C165.731 74.6971 166.353 72.5001 166.353 70.0455V62.6365C165.747 63.0304 164.913 63.394 163.853 63.7274C162.822 64.0304 161.656 64.3183 160.353 64.591C159.05 64.8334 157.747 65.0607 156.444 65.2728C155.141 65.4546 153.959 65.6213 152.898 65.7728C150.625 66.1062 148.641 66.6365 146.944 67.3637C145.247 68.091 143.928 69.0759 142.989 70.3183C142.05 71.5304 141.58 73.0455 141.58 74.8637C141.58 77.5001 142.534 79.5152 144.444 80.9092C146.383 82.2728 148.837 82.9546 151.807 82.9546Z"/>
<path d="M232.057 122.636C225.784 122.636 220.406 121.773 215.921 120.046C211.466 118.349 207.921 116.03 205.284 113.091C202.648 110.152 200.936 106.849 200.148 103.182L218.057 100.773C218.603 102.167 219.466 103.47 220.648 104.682C221.83 105.894 223.391 106.864 225.33 107.591C227.3 108.349 229.694 108.727 232.512 108.727C236.724 108.727 240.194 107.697 242.921 105.636C245.678 103.606 247.057 100.197 247.057 95.4092V82.6365H246.239C245.391 84.5758 244.118 86.4092 242.421 88.1365C240.724 89.8637 238.542 91.2728 235.875 92.3637C233.209 93.4546 230.027 94.0001 226.33 94.0001C221.087 94.0001 216.315 92.788 212.012 90.3637C207.739 87.9092 204.33 84.1668 201.784 79.1365C199.269 74.0758 198.012 67.6819 198.012 59.9546C198.012 52.0455 199.3 45.4395 201.875 40.1365C204.451 34.8334 207.875 30.8637 212.148 28.2274C216.451 25.591 221.163 24.2728 226.284 24.2728C230.194 24.2728 233.466 24.9395 236.103 26.2728C238.739 27.5758 240.86 29.2122 242.466 31.1819C244.103 33.1213 245.36 35.0304 246.239 36.9092H246.966V25.1819H266.194V95.6819C266.194 101.621 264.739 106.591 261.83 110.591C258.921 114.591 254.891 117.591 249.739 119.591C244.618 121.621 238.724 122.636 232.057 122.636ZM232.466 79.4546C235.587 79.4546 238.224 78.6819 240.375 77.1365C242.557 75.5607 244.224 73.3183 245.375 70.4092C246.557 67.4698 247.148 63.9546 247.148 59.8637C247.148 55.7728 246.572 52.2274 245.421 49.2274C244.269 46.1971 242.603 43.8486 240.421 42.1819C238.239 40.5152 235.587 39.6819 232.466 39.6819C229.284 39.6819 226.603 40.5455 224.421 42.2728C222.239 43.9698 220.587 46.3334 219.466 49.3637C218.345 52.394 217.784 55.894 217.784 59.8637C217.784 63.894 218.345 67.3789 219.466 70.3183C220.618 73.2274 222.269 75.4849 224.421 77.091C226.603 78.6668 229.284 79.4546 232.466 79.4546Z"/>
<path d="M313.421 96.3637C306.239 96.3637 300.057 94.9092 294.875 92.0001C289.724 89.0607 285.754 84.9092 282.966 79.5455C280.178 74.1516 278.784 67.7728 278.784 60.4092C278.784 53.2274 280.178 46.9243 282.966 41.5001C285.754 36.0758 289.678 31.8486 294.739 28.8183C299.83 25.788 305.8 24.2728 312.648 24.2728C317.254 24.2728 321.542 25.0152 325.512 26.5001C329.512 27.9546 332.997 30.1516 335.966 33.091C338.966 36.0304 341.3 39.7274 342.966 44.1819C344.633 48.6062 345.466 53.788 345.466 59.7274V65.0455H286.512V53.0455H327.239C327.239 50.2577 326.633 47.788 325.421 45.6365C324.209 43.4849 322.527 41.8031 320.375 40.591C318.254 39.3486 315.784 38.7274 312.966 38.7274C310.027 38.7274 307.421 39.4092 305.148 40.7728C302.906 42.1061 301.148 43.9092 299.875 46.1819C298.603 48.4243 297.951 50.9243 297.921 53.6819V65.091C297.921 68.5455 298.557 71.5304 299.83 74.0455C301.133 76.5607 302.966 78.5001 305.33 79.8637C307.694 81.2274 310.497 81.9092 313.739 81.9092C315.891 81.9092 317.86 81.6062 319.648 81.0001C321.436 80.394 322.966 79.4849 324.239 78.2728C325.512 77.0607 326.481 75.5759 327.148 73.8183L345.057 75.0001C344.148 79.3031 342.284 83.0607 339.466 86.2728C336.678 89.4546 333.072 91.9395 328.648 93.7274C324.254 95.4849 319.178 96.3637 313.421 96.3637Z"/>
<path d="M383.83 96.1365C378.527 96.1365 373.724 94.7728 369.421 92.0455C365.148 89.288 361.754 85.2425 359.239 79.9092C356.754 74.5455 355.512 67.9698 355.512 60.1819C355.512 52.1819 356.8 45.5304 359.375 40.2274C361.951 34.894 365.375 30.9092 369.648 28.2728C373.951 25.6062 378.663 24.2728 383.784 24.2728C387.694 24.2728 390.951 24.9395 393.557 26.2728C396.194 27.5758 398.315 29.2122 399.921 31.1819C401.557 33.1213 402.8 35.0304 403.648 36.9092H404.239V1.90918H423.557V95.0001H404.466V83.8183H403.648C402.739 85.7577 401.451 87.6819 399.784 89.591C398.148 91.4698 396.012 93.0304 393.375 94.2728C390.769 95.5152 387.587 96.1365 383.83 96.1365ZM389.966 80.7274C393.087 80.7274 395.724 79.8789 397.875 78.1819C400.057 76.4546 401.724 74.0455 402.875 70.9546C404.057 67.8637 404.648 64.2425 404.648 60.091C404.648 55.9395 404.072 52.3334 402.921 49.2728C401.769 46.2122 400.103 43.8486 397.921 42.1819C395.739 40.5152 393.087 39.6819 389.966 39.6819C386.784 39.6819 384.103 40.5455 381.921 42.2728C379.739 44.0001 378.087 46.394 376.966 49.4546C375.845 52.5152 375.284 56.0607 375.284 60.091C375.284 64.1516 375.845 67.7425 376.966 70.8637C378.118 73.9546 379.769 76.3789 381.921 78.1365C384.103 79.8637 386.784 80.7274 389.966 80.7274Z"/>
</mask>
<path d="M62.8185 45.091L45.0913 46.1819C44.7882 44.6668 44.1367 43.3031 43.1367 42.091C42.1367 40.8486 40.8185 39.8637 39.1822 39.1365C37.5761 38.3789 35.6519 38.0001 33.4094 38.0001C30.4094 38.0001 27.8791 38.6365 25.8185 39.9092C23.7579 41.1516 22.7276 42.8183 22.7276 44.9092C22.7276 46.5758 23.3943 47.9849 24.7276 49.1365C26.061 50.288 28.3488 51.2122 31.5913 51.9092L44.2276 54.4546C51.0155 55.8486 56.0761 58.091 59.4094 61.1819C62.7428 64.2728 64.4095 68.3334 64.4095 73.3637C64.4095 77.9395 63.061 81.9546 60.364 85.4092C57.6973 88.8637 54.0307 91.5607 49.364 93.5001C44.7276 95.4092 39.3791 96.3637 33.3185 96.3637C24.0761 96.3637 16.7125 94.4395 11.2276 90.591C5.77308 86.7122 2.57611 81.4395 1.63672 74.7728L20.6822 73.7728C21.2579 76.591 22.6519 78.7425 24.864 80.2274C27.0761 81.6819 29.9094 82.4092 33.364 82.4092C36.7579 82.4092 39.4852 81.7577 41.5458 80.4546C43.6367 79.1213 44.6973 77.4092 44.7276 75.3183C44.6973 73.5607 43.9549 72.1213 42.5004 71.0001C41.0458 69.8486 38.8034 68.9698 35.7731 68.3637L23.6822 65.9546C16.864 64.591 11.7882 62.2274 8.4549 58.8637C5.15187 55.5001 3.50035 51.2122 3.50035 46.0001C3.50035 41.5152 4.71248 37.6516 7.13672 34.4092C9.59126 31.1668 13.0307 28.6668 17.4549 26.9092C21.9094 25.1516 27.1216 24.2728 33.0913 24.2728C41.9094 24.2728 48.8488 26.1365 53.9094 29.8637C59.0004 33.591 61.9701 38.6668 62.8185 45.091Z" fill="url(#paint0_linear_828_51)" fill-opacity="0.4"/>
<path d="M113.739 25.1819V39.7274H71.6935V25.1819H113.739ZM81.239 8.45464H100.603V73.5455C100.603 75.3334 100.875 76.7274 101.421 77.7274C101.966 78.6971 102.724 79.3789 103.694 79.7728C104.694 80.1668 105.845 80.3637 107.148 80.3637C108.057 80.3637 108.966 80.288 109.875 80.1365C110.784 79.9546 111.481 79.8183 111.966 79.7274L115.012 94.1365C114.042 94.4395 112.678 94.788 110.921 95.1819C109.163 95.6062 107.027 95.8637 104.512 95.9546C99.8451 96.1365 95.7541 95.5152 92.239 94.091C88.7541 92.6668 86.042 90.4546 84.1026 87.4546C82.1632 84.4546 81.2087 80.6668 81.239 76.091V8.45464Z" fill="url(#paint1_linear_828_51)" fill-opacity="0.4"/>
<path d="M146.262 96.3183C141.807 96.3183 137.837 95.5455 134.353 94.0001C130.868 92.4243 128.11 90.1062 126.08 87.0455C124.08 83.9546 123.08 80.1062 123.08 75.5001C123.08 71.6213 123.792 68.3637 125.216 65.7274C126.641 63.091 128.58 60.9698 131.034 59.3637C133.489 57.7577 136.277 56.5455 139.398 55.7274C142.55 54.9092 145.853 54.3334 149.307 54.0001C153.368 53.5758 156.641 53.1819 159.125 52.8183C161.61 52.4243 163.413 51.8486 164.534 51.091C165.656 50.3334 166.216 49.2122 166.216 47.7274V47.4546C166.216 44.5758 165.307 42.3486 163.489 40.7728C161.701 39.1971 159.156 38.4092 155.853 38.4092C152.368 38.4092 149.595 39.1819 147.534 40.7274C145.474 42.2425 144.11 44.1516 143.444 46.4546L125.534 45.0001C126.444 40.7577 128.231 37.091 130.898 34.0001C133.565 30.8789 137.004 28.4849 141.216 26.8183C145.459 25.1213 150.368 24.2728 155.944 24.2728C159.822 24.2728 163.534 24.7274 167.08 25.6365C170.656 26.5455 173.822 27.9546 176.58 29.8637C179.368 31.7728 181.565 34.2274 183.171 37.2274C184.777 40.1971 185.58 43.7577 185.58 47.9092V95.0001H167.216V85.3183H166.671C165.55 87.5001 164.05 89.4243 162.171 91.091C160.292 92.7274 158.034 94.0152 155.398 94.9546C152.762 95.8637 149.716 96.3183 146.262 96.3183ZM151.807 82.9546C154.656 82.9546 157.171 82.394 159.353 81.2728C161.534 80.1213 163.247 78.5759 164.489 76.6365C165.731 74.6971 166.353 72.5001 166.353 70.0455V62.6365C165.747 63.0304 164.913 63.394 163.853 63.7274C162.822 64.0304 161.656 64.3183 160.353 64.591C159.05 64.8334 157.747 65.0607 156.444 65.2728C155.141 65.4546 153.959 65.6213 152.898 65.7728C150.625 66.1062 148.641 66.6365 146.944 67.3637C145.247 68.091 143.928 69.0759 142.989 70.3183C142.05 71.5304 141.58 73.0455 141.58 74.8637C141.58 77.5001 142.534 79.5152 144.444 80.9092C146.383 82.2728 148.837 82.9546 151.807 82.9546Z" fill="url(#paint2_linear_828_51)" fill-opacity="0.4"/>
<path d="M232.057 122.636C225.784 122.636 220.406 121.773 215.921 120.046C211.466 118.349 207.921 116.03 205.284 113.091C202.648 110.152 200.936 106.849 200.148 103.182L218.057 100.773C218.603 102.167 219.466 103.47 220.648 104.682C221.83 105.894 223.391 106.864 225.33 107.591C227.3 108.349 229.694 108.727 232.512 108.727C236.724 108.727 240.194 107.697 242.921 105.636C245.678 103.606 247.057 100.197 247.057 95.4092V82.6365H246.239C245.391 84.5758 244.118 86.4092 242.421 88.1365C240.724 89.8637 238.542 91.2728 235.875 92.3637C233.209 93.4546 230.027 94.0001 226.33 94.0001C221.087 94.0001 216.315 92.788 212.012 90.3637C207.739 87.9092 204.33 84.1668 201.784 79.1365C199.269 74.0758 198.012 67.6819 198.012 59.9546C198.012 52.0455 199.3 45.4395 201.875 40.1365C204.451 34.8334 207.875 30.8637 212.148 28.2274C216.451 25.591 221.163 24.2728 226.284 24.2728C230.194 24.2728 233.466 24.9395 236.103 26.2728C238.739 27.5758 240.86 29.2122 242.466 31.1819C244.103 33.1213 245.36 35.0304 246.239 36.9092H246.966V25.1819H266.194V95.6819C266.194 101.621 264.739 106.591 261.83 110.591C258.921 114.591 254.891 117.591 249.739 119.591C244.618 121.621 238.724 122.636 232.057 122.636ZM232.466 79.4546C235.587 79.4546 238.224 78.6819 240.375 77.1365C242.557 75.5607 244.224 73.3183 245.375 70.4092C246.557 67.4698 247.148 63.9546 247.148 59.8637C247.148 55.7728 246.572 52.2274 245.421 49.2274C244.269 46.1971 242.603 43.8486 240.421 42.1819C238.239 40.5152 235.587 39.6819 232.466 39.6819C229.284 39.6819 226.603 40.5455 224.421 42.2728C222.239 43.9698 220.587 46.3334 219.466 49.3637C218.345 52.394 217.784 55.894 217.784 59.8637C217.784 63.894 218.345 67.3789 219.466 70.3183C220.618 73.2274 222.269 75.4849 224.421 77.091C226.603 78.6668 229.284 79.4546 232.466 79.4546Z" fill="url(#paint3_linear_828_51)" fill-opacity="0.4"/>
<path d="M313.421 96.3637C306.239 96.3637 300.057 94.9092 294.875 92.0001C289.724 89.0607 285.754 84.9092 282.966 79.5455C280.178 74.1516 278.784 67.7728 278.784 60.4092C278.784 53.2274 280.178 46.9243 282.966 41.5001C285.754 36.0758 289.678 31.8486 294.739 28.8183C299.83 25.788 305.8 24.2728 312.648 24.2728C317.254 24.2728 321.542 25.0152 325.512 26.5001C329.512 27.9546 332.997 30.1516 335.966 33.091C338.966 36.0304 341.3 39.7274 342.966 44.1819C344.633 48.6062 345.466 53.788 345.466 59.7274V65.0455H286.512V53.0455H327.239C327.239 50.2577 326.633 47.788 325.421 45.6365C324.209 43.4849 322.527 41.8031 320.375 40.591C318.254 39.3486 315.784 38.7274 312.966 38.7274C310.027 38.7274 307.421 39.4092 305.148 40.7728C302.906 42.1061 301.148 43.9092 299.875 46.1819C298.603 48.4243 297.951 50.9243 297.921 53.6819V65.091C297.921 68.5455 298.557 71.5304 299.83 74.0455C301.133 76.5607 302.966 78.5001 305.33 79.8637C307.694 81.2274 310.497 81.9092 313.739 81.9092C315.891 81.9092 317.86 81.6062 319.648 81.0001C321.436 80.394 322.966 79.4849 324.239 78.2728C325.512 77.0607 326.481 75.5759 327.148 73.8183L345.057 75.0001C344.148 79.3031 342.284 83.0607 339.466 86.2728C336.678 89.4546 333.072 91.9395 328.648 93.7274C324.254 95.4849 319.178 96.3637 313.421 96.3637Z" fill="url(#paint4_linear_828_51)" fill-opacity="0.4"/>
<path d="M383.83 96.1365C378.527 96.1365 373.724 94.7728 369.421 92.0455C365.148 89.288 361.754 85.2425 359.239 79.9092C356.754 74.5455 355.512 67.9698 355.512 60.1819C355.512 52.1819 356.8 45.5304 359.375 40.2274C361.951 34.894 365.375 30.9092 369.648 28.2728C373.951 25.6062 378.663 24.2728 383.784 24.2728C387.694 24.2728 390.951 24.9395 393.557 26.2728C396.194 27.5758 398.315 29.2122 399.921 31.1819C401.557 33.1213 402.8 35.0304 403.648 36.9092H404.239V1.90918H423.557V95.0001H404.466V83.8183H403.648C402.739 85.7577 401.451 87.6819 399.784 89.591C398.148 91.4698 396.012 93.0304 393.375 94.2728C390.769 95.5152 387.587 96.1365 383.83 96.1365ZM389.966 80.7274C393.087 80.7274 395.724 79.8789 397.875 78.1819C400.057 76.4546 401.724 74.0455 402.875 70.9546C404.057 67.8637 404.648 64.2425 404.648 60.091C404.648 55.9395 404.072 52.3334 402.921 49.2728C401.769 46.2122 400.103 43.8486 397.921 42.1819C395.739 40.5152 393.087 39.6819 389.966 39.6819C386.784 39.6819 384.103 40.5455 381.921 42.2728C379.739 44.0001 378.087 46.394 376.966 49.4546C375.845 52.5152 375.284 56.0607 375.284 60.091C375.284 64.1516 375.845 67.7425 376.966 70.8637C378.118 73.9546 379.769 76.3789 381.921 78.1365C384.103 79.8637 386.784 80.7274 389.966 80.7274Z" fill="url(#paint5_linear_828_51)" fill-opacity="0.4"/>
<path d="M62.8185 45.091L45.0913 46.1819C44.7882 44.6668 44.1367 43.3031 43.1367 42.091C42.1367 40.8486 40.8185 39.8637 39.1822 39.1365C37.5761 38.3789 35.6519 38.0001 33.4094 38.0001C30.4094 38.0001 27.8791 38.6365 25.8185 39.9092C23.7579 41.1516 22.7276 42.8183 22.7276 44.9092C22.7276 46.5758 23.3943 47.9849 24.7276 49.1365C26.061 50.288 28.3488 51.2122 31.5913 51.9092L44.2276 54.4546C51.0155 55.8486 56.0761 58.091 59.4094 61.1819C62.7428 64.2728 64.4095 68.3334 64.4095 73.3637C64.4095 77.9395 63.061 81.9546 60.364 85.4092C57.6973 88.8637 54.0307 91.5607 49.364 93.5001C44.7276 95.4092 39.3791 96.3637 33.3185 96.3637C24.0761 96.3637 16.7125 94.4395 11.2276 90.591C5.77308 86.7122 2.57611 81.4395 1.63672 74.7728L20.6822 73.7728C21.2579 76.591 22.6519 78.7425 24.864 80.2274C27.0761 81.6819 29.9094 82.4092 33.364 82.4092C36.7579 82.4092 39.4852 81.7577 41.5458 80.4546C43.6367 79.1213 44.6973 77.4092 44.7276 75.3183C44.6973 73.5607 43.9549 72.1213 42.5004 71.0001C41.0458 69.8486 38.8034 68.9698 35.7731 68.3637L23.6822 65.9546C16.864 64.591 11.7882 62.2274 8.4549 58.8637C5.15187 55.5001 3.50035 51.2122 3.50035 46.0001C3.50035 41.5152 4.71248 37.6516 7.13672 34.4092C9.59126 31.1668 13.0307 28.6668 17.4549 26.9092C21.9094 25.1516 27.1216 24.2728 33.0913 24.2728C41.9094 24.2728 48.8488 26.1365 53.9094 29.8637C59.0004 33.591 61.9701 38.6668 62.8185 45.091Z" stroke="url(#paint6_linear_828_51)" stroke-width="2" mask="url(#path-1-outside-1_828_51)"/>
<path d="M113.739 25.1819V39.7274H71.6935V25.1819H113.739ZM81.239 8.45464H100.603V73.5455C100.603 75.3334 100.875 76.7274 101.421 77.7274C101.966 78.6971 102.724 79.3789 103.694 79.7728C104.694 80.1668 105.845 80.3637 107.148 80.3637C108.057 80.3637 108.966 80.288 109.875 80.1365C110.784 79.9546 111.481 79.8183 111.966 79.7274L115.012 94.1365C114.042 94.4395 112.678 94.788 110.921 95.1819C109.163 95.6062 107.027 95.8637 104.512 95.9546C99.8451 96.1365 95.7541 95.5152 92.239 94.091C88.7541 92.6668 86.042 90.4546 84.1026 87.4546C82.1632 84.4546 81.2087 80.6668 81.239 76.091V8.45464Z" stroke="url(#paint7_linear_828_51)" stroke-width="2" mask="url(#path-1-outside-1_828_51)"/>
<path d="M146.262 96.3183C141.807 96.3183 137.837 95.5455 134.353 94.0001C130.868 92.4243 128.11 90.1062 126.08 87.0455C124.08 83.9546 123.08 80.1062 123.08 75.5001C123.08 71.6213 123.792 68.3637 125.216 65.7274C126.641 63.091 128.58 60.9698 131.034 59.3637C133.489 57.7577 136.277 56.5455 139.398 55.7274C142.55 54.9092 145.853 54.3334 149.307 54.0001C153.368 53.5758 156.641 53.1819 159.125 52.8183C161.61 52.4243 163.413 51.8486 164.534 51.091C165.656 50.3334 166.216 49.2122 166.216 47.7274V47.4546C166.216 44.5758 165.307 42.3486 163.489 40.7728C161.701 39.1971 159.156 38.4092 155.853 38.4092C152.368 38.4092 149.595 39.1819 147.534 40.7274C145.474 42.2425 144.11 44.1516 143.444 46.4546L125.534 45.0001C126.444 40.7577 128.231 37.091 130.898 34.0001C133.565 30.8789 137.004 28.4849 141.216 26.8183C145.459 25.1213 150.368 24.2728 155.944 24.2728C159.822 24.2728 163.534 24.7274 167.08 25.6365C170.656 26.5455 173.822 27.9546 176.58 29.8637C179.368 31.7728 181.565 34.2274 183.171 37.2274C184.777 40.1971 185.58 43.7577 185.58 47.9092V95.0001H167.216V85.3183H166.671C165.55 87.5001 164.05 89.4243 162.171 91.091C160.292 92.7274 158.034 94.0152 155.398 94.9546C152.762 95.8637 149.716 96.3183 146.262 96.3183ZM151.807 82.9546C154.656 82.9546 157.171 82.394 159.353 81.2728C161.534 80.1213 163.247 78.5759 164.489 76.6365C165.731 74.6971 166.353 72.5001 166.353 70.0455V62.6365C165.747 63.0304 164.913 63.394 163.853 63.7274C162.822 64.0304 161.656 64.3183 160.353 64.591C159.05 64.8334 157.747 65.0607 156.444 65.2728C155.141 65.4546 153.959 65.6213 152.898 65.7728C150.625 66.1062 148.641 66.6365 146.944 67.3637C145.247 68.091 143.928 69.0759 142.989 70.3183C142.05 71.5304 141.58 73.0455 141.58 74.8637C141.58 77.5001 142.534 79.5152 144.444 80.9092C146.383 82.2728 148.837 82.9546 151.807 82.9546Z" stroke="url(#paint8_linear_828_51)" stroke-width="2" mask="url(#path-1-outside-1_828_51)"/>
<path d="M232.057 122.636C225.784 122.636 220.406 121.773 215.921 120.046C211.466 118.349 207.921 116.03 205.284 113.091C202.648 110.152 200.936 106.849 200.148 103.182L218.057 100.773C218.603 102.167 219.466 103.47 220.648 104.682C221.83 105.894 223.391 106.864 225.33 107.591C227.3 108.349 229.694 108.727 232.512 108.727C236.724 108.727 240.194 107.697 242.921 105.636C245.678 103.606 247.057 100.197 247.057 95.4092V82.6365H246.239C245.391 84.5758 244.118 86.4092 242.421 88.1365C240.724 89.8637 238.542 91.2728 235.875 92.3637C233.209 93.4546 230.027 94.0001 226.33 94.0001C221.087 94.0001 216.315 92.788 212.012 90.3637C207.739 87.9092 204.33 84.1668 201.784 79.1365C199.269 74.0758 198.012 67.6819 198.012 59.9546C198.012 52.0455 199.3 45.4395 201.875 40.1365C204.451 34.8334 207.875 30.8637 212.148 28.2274C216.451 25.591 221.163 24.2728 226.284 24.2728C230.194 24.2728 233.466 24.9395 236.103 26.2728C238.739 27.5758 240.86 29.2122 242.466 31.1819C244.103 33.1213 245.36 35.0304 246.239 36.9092H246.966V25.1819H266.194V95.6819C266.194 101.621 264.739 106.591 261.83 110.591C258.921 114.591 254.891 117.591 249.739 119.591C244.618 121.621 238.724 122.636 232.057 122.636ZM232.466 79.4546C235.587 79.4546 238.224 78.6819 240.375 77.1365C242.557 75.5607 244.224 73.3183 245.375 70.4092C246.557 67.4698 247.148 63.9546 247.148 59.8637C247.148 55.7728 246.572 52.2274 245.421 49.2274C244.269 46.1971 242.603 43.8486 240.421 42.1819C238.239 40.5152 235.587 39.6819 232.466 39.6819C229.284 39.6819 226.603 40.5455 224.421 42.2728C222.239 43.9698 220.587 46.3334 219.466 49.3637C218.345 52.394 217.784 55.894 217.784 59.8637C217.784 63.894 218.345 67.3789 219.466 70.3183C220.618 73.2274 222.269 75.4849 224.421 77.091C226.603 78.6668 229.284 79.4546 232.466 79.4546Z" stroke="url(#paint9_linear_828_51)" stroke-width="2" mask="url(#path-1-outside-1_828_51)"/>
<path d="M313.421 96.3637C306.239 96.3637 300.057 94.9092 294.875 92.0001C289.724 89.0607 285.754 84.9092 282.966 79.5455C280.178 74.1516 278.784 67.7728 278.784 60.4092C278.784 53.2274 280.178 46.9243 282.966 41.5001C285.754 36.0758 289.678 31.8486 294.739 28.8183C299.83 25.788 305.8 24.2728 312.648 24.2728C317.254 24.2728 321.542 25.0152 325.512 26.5001C329.512 27.9546 332.997 30.1516 335.966 33.091C338.966 36.0304 341.3 39.7274 342.966 44.1819C344.633 48.6062 345.466 53.788 345.466 59.7274V65.0455H286.512V53.0455H327.239C327.239 50.2577 326.633 47.788 325.421 45.6365C324.209 43.4849 322.527 41.8031 320.375 40.591C318.254 39.3486 315.784 38.7274 312.966 38.7274C310.027 38.7274 307.421 39.4092 305.148 40.7728C302.906 42.1061 301.148 43.9092 299.875 46.1819C298.603 48.4243 297.951 50.9243 297.921 53.6819V65.091C297.921 68.5455 298.557 71.5304 299.83 74.0455C301.133 76.5607 302.966 78.5001 305.33 79.8637C307.694 81.2274 310.497 81.9092 313.739 81.9092C315.891 81.9092 317.86 81.6062 319.648 81.0001C321.436 80.394 322.966 79.4849 324.239 78.2728C325.512 77.0607 326.481 75.5759 327.148 73.8183L345.057 75.0001C344.148 79.3031 342.284 83.0607 339.466 86.2728C336.678 89.4546 333.072 91.9395 328.648 93.7274C324.254 95.4849 319.178 96.3637 313.421 96.3637Z" stroke="url(#paint10_linear_828_51)" stroke-width="2" mask="url(#path-1-outside-1_828_51)"/>
<path d="M383.83 96.1365C378.527 96.1365 373.724 94.7728 369.421 92.0455C365.148 89.288 361.754 85.2425 359.239 79.9092C356.754 74.5455 355.512 67.9698 355.512 60.1819C355.512 52.1819 356.8 45.5304 359.375 40.2274C361.951 34.894 365.375 30.9092 369.648 28.2728C373.951 25.6062 378.663 24.2728 383.784 24.2728C387.694 24.2728 390.951 24.9395 393.557 26.2728C396.194 27.5758 398.315 29.2122 399.921 31.1819C401.557 33.1213 402.8 35.0304 403.648 36.9092H404.239V1.90918H423.557V95.0001H404.466V83.8183H403.648C402.739 85.7577 401.451 87.6819 399.784 89.591C398.148 91.4698 396.012 93.0304 393.375 94.2728C390.769 95.5152 387.587 96.1365 383.83 96.1365ZM389.966 80.7274C393.087 80.7274 395.724 79.8789 397.875 78.1819C400.057 76.4546 401.724 74.0455 402.875 70.9546C404.057 67.8637 404.648 64.2425 404.648 60.091C404.648 55.9395 404.072 52.3334 402.921 49.2728C401.769 46.2122 400.103 43.8486 397.921 42.1819C395.739 40.5152 393.087 39.6819 389.966 39.6819C386.784 39.6819 384.103 40.5455 381.921 42.2728C379.739 44.0001 378.087 46.394 376.966 49.4546C375.845 52.5152 375.284 56.0607 375.284 60.091C375.284 64.1516 375.845 67.7425 376.966 70.8637C378.118 73.9546 379.769 76.3789 381.921 78.1365C384.103 79.8637 386.784 80.7274 389.966 80.7274Z" stroke="url(#paint11_linear_828_51)" stroke-width="2" mask="url(#path-1-outside-1_828_51)"/>
<defs>
<linearGradient id="paint0_linear_828_51" x1="237.5" y1="111.5" x2="-17.5" y2="-60.5" gradientUnits="userSpaceOnUse">
<stop offset="0.381817" stop-color="white"/>
<stop offset="1" stop-color="white" stop-opacity="0.3"/>
</linearGradient>
<linearGradient id="paint1_linear_828_51" x1="237.5" y1="111.5" x2="-17.5" y2="-60.5" gradientUnits="userSpaceOnUse">
<stop offset="0.381817" stop-color="white"/>
<stop offset="1" stop-color="white" stop-opacity="0.3"/>
</linearGradient>
<linearGradient id="paint2_linear_828_51" x1="237.5" y1="111.5" x2="-17.5" y2="-60.5" gradientUnits="userSpaceOnUse">
<stop offset="0.381817" stop-color="white"/>
<stop offset="1" stop-color="white" stop-opacity="0.3"/>
</linearGradient>
<linearGradient id="paint3_linear_828_51" x1="237.5" y1="111.5" x2="-17.5" y2="-60.5" gradientUnits="userSpaceOnUse">
<stop offset="0.381817" stop-color="white"/>
<stop offset="1" stop-color="white" stop-opacity="0.3"/>
</linearGradient>
<linearGradient id="paint4_linear_828_51" x1="237.5" y1="111.5" x2="-17.5" y2="-60.5" gradientUnits="userSpaceOnUse">
<stop offset="0.381817" stop-color="white"/>
<stop offset="1" stop-color="white" stop-opacity="0.3"/>
</linearGradient>
<linearGradient id="paint5_linear_828_51" x1="237.5" y1="111.5" x2="-17.5" y2="-60.5" gradientUnits="userSpaceOnUse">
<stop offset="0.381817" stop-color="white"/>
<stop offset="1" stop-color="white" stop-opacity="0.3"/>
</linearGradient>
<linearGradient id="paint6_linear_828_51" x1="114" y1="12.5" x2="267.5" y2="118" gradientUnits="userSpaceOnUse">
<stop stop-color="white"/>
<stop offset="1" stop-color="white" stop-opacity="0.2"/>
</linearGradient>
<linearGradient id="paint7_linear_828_51" x1="114" y1="12.5" x2="267.5" y2="118" gradientUnits="userSpaceOnUse">
<stop stop-color="white"/>
<stop offset="1" stop-color="white" stop-opacity="0.2"/>
</linearGradient>
<linearGradient id="paint8_linear_828_51" x1="114" y1="12.5" x2="267.5" y2="118" gradientUnits="userSpaceOnUse">
<stop stop-color="white"/>
<stop offset="1" stop-color="white" stop-opacity="0.2"/>
</linearGradient>
<linearGradient id="paint9_linear_828_51" x1="114" y1="12.5" x2="267.5" y2="118" gradientUnits="userSpaceOnUse">
<stop stop-color="white"/>
<stop offset="1" stop-color="white" stop-opacity="0.2"/>
</linearGradient>
<linearGradient id="paint10_linear_828_51" x1="114" y1="12.5" x2="267.5" y2="118" gradientUnits="userSpaceOnUse">
<stop stop-color="white"/>
<stop offset="1" stop-color="white" stop-opacity="0.2"/>
</linearGradient>
<linearGradient id="paint11_linear_828_51" x1="114" y1="12.5" x2="267.5" y2="118" gradientUnits="userSpaceOnUse">
<stop stop-color="white"/>
<stop offset="1" stop-color="white" stop-opacity="0.2"/>
</linearGradient>
</defs>
</svg>
